<svg xmlns="http://www.w3.org/2000/svg" viewBox="0 0 100 100" width="100" height="100" role="img" aria-label="HOMI365">
  <title>HOMI365 — biểu tượng nhà và trái tim</title>
  <g fill="none" stroke-linecap="round" stroke-linejoin="round">
    <path d="M14 46 L50 13 L86 46 V85 A3 3 0 0 1 83 88 H17 A3 3 0 0 1 14 85 Z"
          stroke="#1E3A66" stroke-width="7"/>
    <path d="M50 76 C40 67 32.5 60.5 32.5 54 C32.5 49 36.5 45 41.5 45 C45.3 45 48.6 47.2 50 50 C51.4 47.2 54.7 45 58.5 45 C63.5 45 67.5 49 67.5 54 C67.5 60.5 60 67 50 76 Z"
          stroke="#1BA3BE" stroke-width="6"/>
  </g>
</svg>
